<?xml version="1.0" encoding="UTF-8" standalone="no"?>
<!-- Generated by graphviz version 2.43.0 (0)
 -->

<!-- Title: %3 Pages: 1 -->

<svg
   width="1078pt"
   height="374pt"
   viewBox="0.00 0.00 1078.00 373.86"
   version="1.1"
   id="svg372"
   sodipodi:docname="plate.svg"
   inkscape:version="1.2.1 (0f2f062aeb, 2022-09-21, custom)"
   inkscape:export-filename="../46db7224/plate.png"
   inkscape:export-xdpi="96"
   inkscape:export-ydpi="96"
   xmlns:inkscape="http://www.inkscape.org/namespaces/inkscape"
   xmlns:sodipodi="http://sodipodi.sourceforge.net/DTD/sodipodi-0.dtd"
   xmlns="http://www.w3.org/2000/svg"
   xmlns:svg="http://www.w3.org/2000/svg">
  <defs
     id="defs376" />
  <sodipodi:namedview
     id="namedview374"
     pagecolor="#ffffff"
     bordercolor="#000000"
     borderopacity="0.25"
     inkscape:showpageshadow="2"
     inkscape:pageopacity="0.0"
     inkscape:pagecheckerboard="0"
     inkscape:deskcolor="#d1d1d1"
     inkscape:document-units="pt"
     showgrid="false"
     inkscape:zoom="1.3469388"
     inkscape:cx="700.84848"
     inkscape:cy="249.08333"
     inkscape:window-width="2560"
     inkscape:window-height="1376"
     inkscape:window-x="1920"
     inkscape:window-y="27"
     inkscape:window-maximized="1"
     inkscape:current-layer="svg372" />
  <polygon
     fill="#ffffff"
     stroke="transparent"
     points="1074,-369.86 1074,4 -4,4 -4,-369.86 "
     id="polygon150"
     transform="translate(4,369.86)" />
  <path
     fill="none"
     stroke="#000000"
     d="m 24,236.93 c 0,0 108,0 108,0 6,0 12,-6 12,-12 0,0 0,-68 0,-68 0,-6 -6,-12 -12,-12 0,0 -108,0 -108,0 -6,0 -12,6 -12,12 0,0 0,68 0,68 0,6 6,12 12,12"
     id="path154" />
  <text
     text-anchor="middle"
     x="90"
     y="229.13"
     font-family="Times, serif"
     font-size="14px"
     id="text156">n_observations</text>
  <g
     id="clust2"
     class="cluster"
     transform="translate(4,369.86)">
    <title
       id="title159">cluster1200</title>
    <path
       fill="none"
       stroke="#000000"
       d="m 160,-8 c 0,0 241,0 241,0 6,0 12,-6 12,-12 0,0 0,-192.93 0,-192.93 0,-6 -6,-12 -12,-12 0,0 -241,0 -241,0 -6,0 -12,6 -12,12 0,0 0,192.93 0,192.93 0,6 6,12 12,12"
       id="path161" />
    <text
       text-anchor="middle"
       x="359.5"
       y="-15.8"
       font-family="Times, serif"
       font-size="14px"
       id="text163">n_observations</text>
  </g>
  <path
     fill="none"
     stroke="#000000"
     d="m 402,125.95 c 0,0 652,0 652,0 6,0 12,-6 12,-12 0,0 0,-89.95 0,-89.95 0,-6 -6,-12 -12,-12 0,0 -652,0 -652,0 -6,0 -12,6 -12,12 0,0 0,89.95 0,89.95 0,6 6,12 12,12"
     id="path168" />
  <text
     text-anchor="middle"
     x="1006"
     y="118.14999"
     font-family="Times, serif"
     font-size="14px"
     id="text170">n_diagnosis_levels</text>
  <path
     fill="none"
     stroke="#000000"
     d="m 590,247.91 c 0,0 242,0 242,0 6,0 12,-6 12,-12 0,0 0,-89.96 0,-89.96 0,-6 -6,-12 -12,-12 0,0 -242,0 -242,0 -6,0 -12,6 -12,12 0,0 0,89.96 0,89.96 0,6 6,12 12,12"
     id="path175" />
  <text
     text-anchor="middle"
     x="792.34625"
     y="240.11"
     font-family="Times, serif"
     font-size="14px"
     id="text177">n_children</text>
  <g
     id="node1"
     class="node"
     transform="translate(4,369.86)">
    <title
       id="title180">diagnosis</title>
    <path
       fill="#d3d3d3"
       stroke="#000000"
       d="m 119.5,-216.93 c 0,0 -91,0 -91,0 -6,0 -12,6 -12,12 0,0 0,29 0,29 0,6 6,12 12,12 0,0 91,0 91,0 6,0 12,-6 12,-12 0,0 0,-29 0,-29 0,-6 -6,-12 -12,-12"
       id="path182" />
    <text
       text-anchor="middle"
       x="74"
       y="-201.73"
       font-family="Times, serif"
       font-size="14px"
       id="text184">diagnosis</text>
    <text
       text-anchor="middle"
       x="74"
       y="-186.73"
       font-family="Times, serif"
       font-size="14px"
       id="text186">~</text>
    <text
       text-anchor="middle"
       x="74"
       y="-171.73"
       font-family="Times, serif"
       font-size="14px"
       id="text188">ConstantData</text>
  </g>
  <ellipse
     fill="#d3d3d3"
     stroke="#000000"
     cx="341"
     cy="293.38"
     rx="67.760002"
     ry="37.450001"
     id="ellipse193" />
  <text
     text-anchor="middle"
     x="341"
     y="282.07999"
     font-family="Times, serif"
     font-size="14px"
     id="text195">y</text>
  <text
     text-anchor="middle"
     x="341"
     y="297.07999"
     font-family="Times, serif"
     font-size="14px"
     id="text197">~</text>
  <text
     text-anchor="middle"
     x="341"
     y="312.07999"
     font-family="Times, serif"
     font-size="14px"
     id="text199">LogNormal</text>
  <g
     id="edge8"
     class="edge"
     transform="translate(4,369.86)">
    <title
       id="title202">diagnosis-&gt;y</title>
    <path
       fill="none"
       stroke="#000000"
       d="m 94.46,-163.75 c 12.77,14.37 30.4,31.42 49.54,41.8 35.64,19.32 79.4,30.28 116.23,36.48"
       id="path204" />
    <polygon
       fill="#000000"
       stroke="#000000"
       points="260,-81.96 261.1,-88.88 270.42,-83.85 "
       id="polygon206" />
  </g>
  <g
     id="node3"
     class="node"
     transform="translate(4,369.86)">
    <title
       id="title209">visit</title>
    <path
       fill="#d3d3d3"
       stroke="#000000"
       d="m 392.5,-216.93 c 0,0 -91,0 -91,0 -6,0 -12,6 -12,12 0,0 0,29 0,29 0,6 6,12 12,12 0,0 91,0 91,0 6,0 12,-6 12,-12 0,0 0,-29 0,-29 0,-6 -6,-12 -12,-12"
       id="path211" />
    <text
       text-anchor="middle"
       x="347"
       y="-201.73"
       font-family="Times, serif"
       font-size="14px"
       id="text213">visit</text>
    <text
       text-anchor="middle"
       x="347"
       y="-186.73"
       font-family="Times, serif"
       font-size="14px"
       id="text215">~</text>
    <text
       text-anchor="middle"
       x="347"
       y="-171.73"
       font-family="Times, serif"
       font-size="14px"
       id="text217">ConstantData</text>
  </g>
  <g
     id="edge6"
     class="edge"
     transform="translate(4,369.86)">
    <title
       id="title220">visit-&gt;y</title>
    <path
       fill="none"
       stroke="#000000"
       d="m 344.71,-163.75 c -1.05,11.73 -2.33,26 -3.53,39.53"
       id="path222" />
    <polygon
       fill="#000000"
       stroke="#000000"
       points="337.67,-124.35 344.64,-123.72 340.27,-114.07 "
       id="polygon224" />
  </g>
  <g
     id="node4"
     class="node"
     transform="translate(4,369.86)">
    <title
       id="title227">child_id</title>
    <path
       fill="#d3d3d3"
       stroke="#000000"
       d="m 259.5,-216.93 c 0,0 -91,0 -91,0 -6,0 -12,6 -12,12 0,0 0,29 0,29 0,6 6,12 12,12 0,0 91,0 91,0 6,0 12,-6 12,-12 0,0 0,-29 0,-29 0,-6 -6,-12 -12,-12"
       id="path229" />
    <text
       text-anchor="middle"
       x="214"
       y="-201.73"
       font-family="Times, serif"
       font-size="14px"
       id="text231">child_id</text>
    <text
       text-anchor="middle"
       x="214"
       y="-186.73"
       font-family="Times, serif"
       font-size="14px"
       id="text233">~</text>
    <text
       text-anchor="middle"
       x="214"
       y="-171.73"
       font-family="Times, serif"
       font-size="14px"
       id="text235">ConstantData</text>
  </g>
  <g
     id="edge7"
     class="edge"
     transform="translate(4,369.86)">
    <title
       id="title238">child_id-&gt;y</title>
    <path
       fill="none"
       stroke="#000000"
       d="m 237.68,-163.63 c 12.24,12.92 27.66,28.57 42.32,41.68 3.11,2.77 6.36,5.58 9.68,8.36"
       id="path240" />
    <polygon
       fill="#000000"
       stroke="#000000"
       points="287.54,-110.82 291.98,-116.23 297.5,-107.19 "
       id="polygon242" />
  </g>
  <g
     id="node5"
     class="node"
     transform="translate(4,369.86)">
    <title
       id="title245">mu_intercept</title>
    <ellipse
       fill="none"
       stroke="#000000"
       cx="976"
       cy="-312.38"
       rx="78.480003"
       ry="37.450001"
       id="ellipse247" />
    <text
       text-anchor="middle"
       x="976"
       y="-323.67999"
       font-family="Times, serif"
       font-size="14px"
       id="text249">mu_intercept</text>
    <text
       text-anchor="middle"
       x="976"
       y="-308.67999"
       font-family="Times, serif"
       font-size="14px"
       id="text251">~</text>
    <text
       text-anchor="middle"
       x="976"
       y="-293.67999"
       font-family="Times, serif"
       font-size="14px"
       id="text253">Normal</text>
  </g>
  <g
     id="node10"
     class="node"
     transform="translate(4,369.86)">
    <title
       id="title256">intercept</title>
    <ellipse
       fill="none"
       stroke="#000000"
       cx="774"
       cy="-190.42999"
       rx="57.970001"
       ry="37.450001"
       id="ellipse258" />
    <text
       text-anchor="middle"
       x="774"
       y="-201.73"
       font-family="Times, serif"
       font-size="14px"
       id="text260">intercept</text>
    <text
       text-anchor="middle"
       x="774"
       y="-186.73"
       font-family="Times, serif"
       font-size="14px"
       id="text262">~</text>
    <text
       text-anchor="middle"
       x="774"
       y="-171.73"
       font-family="Times, serif"
       font-size="14px"
       id="text264">Normal</text>
  </g>
  <g
     id="edge1"
     class="edge"
     transform="translate(4,369.86)">
    <title
       id="title267">mu_intercept-&gt;intercept</title>
    <path
       fill="none"
       stroke="#000000"
       d="m 938.4,-279.15 c -14.84,11.89 -32.39,24.96 -49.4,35.24 -17.83,10.79 -38.26,20.79 -56.9,29.11"
       id="path269" />
    <polygon
       fill="#000000"
       stroke="#000000"
       points="830.58,-217.95 833.39,-211.54 822.83,-210.73 "
       id="polygon271" />
  </g>
  <g
     id="node6"
     class="node"
     transform="translate(4,369.86)">
    <title
       id="title274">sigma_intercept</title>
    <ellipse
       fill="none"
       stroke="#000000"
       cx="787"
       cy="-312.38"
       rx="92.760002"
       ry="37.450001"
       id="ellipse276" />
    <text
       text-anchor="middle"
       x="787"
       y="-323.67999"
       font-family="Times, serif"
       font-size="14px"
       id="text278">sigma_intercept</text>
    <text
       text-anchor="middle"
       x="787"
       y="-308.67999"
       font-family="Times, serif"
       font-size="14px"
       id="text280">~</text>
    <text
       text-anchor="middle"
       x="787"
       y="-293.67999"
       font-family="Times, serif"
       font-size="14px"
       id="text282">HalfNormal</text>
  </g>
  <g
     id="edge2"
     class="edge"
     transform="translate(4,369.86)">
    <title
       id="title285">sigma_intercept-&gt;intercept</title>
    <path
       fill="none"
       stroke="#000000"
       d="m 783.03,-274.74 c -1.26,11.63 -2.67,24.64 -4,36.86"
       id="path287" />
    <polygon
       fill="#000000"
       stroke="#000000"
       points="775.54,-238.17 782.5,-237.41 777.95,-227.85 "
       id="polygon289" />
  </g>
  <g
     id="node7"
     class="node"
     transform="translate(4,369.86)">
    <title
       id="title292">mu_slope</title>
    <ellipse
       fill="none"
       stroke="#000000"
       cx="618"
       cy="-312.38"
       rx="58.880001"
       ry="37.450001"
       id="ellipse294" />
    <text
       text-anchor="middle"
       x="618"
       y="-323.67999"
       font-family="Times, serif"
       font-size="14px"
       id="text296">mu_slope</text>
    <text
       text-anchor="middle"
       x="618"
       y="-308.67999"
       font-family="Times, serif"
       font-size="14px"
       id="text298">~</text>
    <text
       text-anchor="middle"
       x="618"
       y="-293.67999"
       font-family="Times, serif"
       font-size="14px"
       id="text300">Normal</text>
  </g>
  <g
     id="node11"
     class="node"
     transform="translate(4,369.86)">
    <title
       id="title303">slope</title>
    <ellipse
       fill="none"
       stroke="#000000"
       cx="631"
       cy="-190.42999"
       rx="49.490002"
       ry="37.450001"
       id="ellipse305" />
    <text
       text-anchor="middle"
       x="631"
       y="-201.73"
       font-family="Times, serif"
       font-size="14px"
       id="text307">slope</text>
    <text
       text-anchor="middle"
       x="631"
       y="-186.73"
       font-family="Times, serif"
       font-size="14px"
       id="text309">~</text>
    <text
       text-anchor="middle"
       x="631"
       y="-171.73"
       font-family="Times, serif"
       font-size="14px"
       id="text311">Normal</text>
  </g>
  <g
     id="edge3"
     class="edge"
     transform="translate(4,369.86)">
    <title
       id="title314">mu_slope-&gt;slope</title>
    <path
       fill="none"
       stroke="#000000"
       d="m 621.97,-274.74 c 1.26,11.63 2.67,24.64 4,36.86"
       id="path316" />
    <polygon
       fill="#000000"
       stroke="#000000"
       points="622.5,-237.41 629.46,-238.17 627.05,-227.85 "
       id="polygon318" />
  </g>
  <g
     id="node8"
     class="node"
     transform="translate(4,369.86)">
    <title
       id="title321">sigma_slope</title>
    <ellipse
       fill="none"
       stroke="#000000"
       cx="468"
       cy="-312.38"
       rx="73.580002"
       ry="37.450001"
       id="ellipse323" />
    <text
       text-anchor="middle"
       x="468"
       y="-323.67999"
       font-family="Times, serif"
       font-size="14px"
       id="text325">sigma_slope</text>
    <text
       text-anchor="middle"
       x="468"
       y="-308.67999"
       font-family="Times, serif"
       font-size="14px"
       id="text327">~</text>
    <text
       text-anchor="middle"
       x="468"
       y="-293.67999"
       font-family="Times, serif"
       font-size="14px"
       id="text329">HalfNormal</text>
  </g>
  <g
     id="edge4"
     class="edge"
     transform="translate(4,369.86)">
    <title
       id="title332">sigma_slope-&gt;slope</title>
    <path
       fill="none"
       stroke="#000000"
       d="m 501.92,-278.89 c 14.05,12.2 31.04,25.42 48.08,34.98 9.44,5.3 13.47,2.87 23,8 5.93,3.2 11.89,6.98 17.62,10.97"
       id="path334" />
    <polygon
       fill="#000000"
       stroke="#000000"
       points="588.67,-222.03 592.78,-227.7 598.82,-218.99 "
       id="polygon336" />
  </g>
  <g
     id="node9"
     class="node"
     transform="translate(4,369.86)">
    <title
       id="title339">error</title>
    <ellipse
       fill="none"
       stroke="#000000"
       cx="493"
       cy="-190.42999"
       rx="70.919998"
       ry="37.450001"
       id="ellipse341" />
    <text
       text-anchor="middle"
       x="493"
       y="-201.73"
       font-family="Times, serif"
       font-size="14px"
       id="text343">error</text>
    <text
       text-anchor="middle"
       x="493"
       y="-186.73"
       font-family="Times, serif"
       font-size="14px"
       id="text345">~</text>
    <text
       text-anchor="middle"
       x="493"
       y="-171.73"
       font-family="Times, serif"
       font-size="14px"
       id="text347">HalfNormal</text>
  </g>
  <g
     id="edge5"
     class="edge"
     transform="translate(4,369.86)">
    <title
       id="title350">error-&gt;y</title>
    <path
       fill="none"
       stroke="#000000"
       d="m 459.9,-157.2 c -12.88,11.76 -28.07,24.74 -42.9,35.25 -6.89,4.89 -14.38,9.66 -21.91,14.16"
       id="path352" />
    <polygon
       fill="#000000"
       stroke="#000000"
       points="393.14,-110.7 396.67,-104.65 386.27,-102.64 "
       id="polygon354" />
  </g>
  <g
     id="edge9"
     class="edge"
     transform="translate(4,369.86)">
    <title
       id="title357">intercept-&gt;y</title>
    <path
       fill="none"
       stroke="#000000"
       d="m 743.22,-158.22 c -15.07,13.39 -34.25,27.86 -54.22,36.27 -47.99,20.19 -186.1,33.11 -274.38,39.56"
       id="path359" />
    <polygon
       fill="#000000"
       stroke="#000000"
       points="414.1,-85.87 414.6,-78.88 404.38,-81.66 "
       id="polygon361" />
  </g>
  <g
     id="edge10"
     class="edge"
     transform="translate(4,369.86)">
    <title
       id="title364">slope-&gt;y</title>
    <path
       fill="none"
       stroke="#000000"
       d="m 609.75,-156.21 c -9.72,12.6 -22.3,25.92 -36.75,34.26 -47.95,27.68 -109.67,38.61 -157.96,42.72"
       id="path366" />
    <polygon
       fill="#000000"
       stroke="#000000"
       points="414.65,-82.71 415.19,-75.73 404.95,-78.45 "
       id="polygon368" />
  </g>
</svg>
